# xmcd
#
# Track frame offsets:
#	150
#	12427
#	22910
#	33790
#	47065
#	57350
#	67410
#	80557
#	97415
#	111485
#
# Disc length: 1644
#
# Revision: 6
# Processed by: cddbd v1.5.1PL0 Copyright (c) Steve Scherf et al.
# Submitted via: CDex 1.51
# Normalized: r5:TRMNUM
#
DISCID=8b066a0a
DTITLE=Various Artist - Country Romance
DYEAR=1993
DGENRE=Country
TTITLE0=Eleven Roses-Hank Williams Jr.
TTITLE1=Your Man Loves You, Honey-Tom T. Hall
TTITLE2=Unchained Melody-Charlie Rich
TTITLE3=You'll Always Have Someone-Willie Nelson
TTITLE4=You Mean The World To Me-David Houston
TTITLE5=I Can't Stop Loving You-Kitty Wells
TTITLE6=That Heart Belongs To Me-Mickey Gilley
TTITLE7=Don't Get Me Started-John Conlee
TTITLE8=Cry-Lynn Anderson
TTITLE9=Making Believe-Dolly Parton
EXTD=YEAR: 1993
EXTT0=
EXTT1=
EXTT2=
EXTT3=
EXTT4=
EXTT5=
EXTT6=
EXTT7=
EXTT8=
EXTT9=
PLAYORDER=
